<svg width="57" height="64" viewBox="0 0 57 64" fill="none" xmlns="http://www.w3.org/2000/svg">
<path d="M35.6019 36.352L28.4996 40.4879L26.5891 39.376C26.3142 39.2161 25.9635 39.3105 25.805 39.5876C25.6465 39.8648 25.7409 40.2184 26.0149 40.3783L28.2121 41.6577C28.3006 41.7096 28.4001 41.7351 28.4987 41.7351C28.5974 41.7351 28.6969 41.7096 28.7862 41.6577L36.1752 37.3552C36.4501 37.1954 36.5437 36.8409 36.3852 36.5646C36.2267 36.2874 35.8759 36.1931 35.6011 36.3529L35.6019 36.352Z" fill="#232323"/>
<path d="M45.9241 21.8292C45.6071 21.8292 45.3499 22.0885 45.3499 22.4082V30.6774L43.4403 31.7894C43.1654 31.9492 43.0719 32.3028 43.2304 32.58C43.3366 32.7653 43.5297 32.8699 43.7278 32.8699C43.8256 32.8699 43.9242 32.8452 44.0145 32.7925L46.2116 31.5131C46.3895 31.4094 46.4983 31.2189 46.4983 31.0115V22.4082C46.4983 22.0885 46.2403 21.8292 45.9233 21.8292H45.9241Z" fill="#232323"/>
<path d="M38.2476 6.92386L45.3508 11.0581V13.282C45.3508 13.6016 45.6079 13.8609 45.925 13.8609C46.242 13.8609 46.4991 13.6016 46.4991 13.282V10.724C46.4991 10.5174 46.3895 10.3261 46.2116 10.2224L38.8218 5.92156C38.5469 5.76173 38.1962 5.85695 38.0377 6.13324C37.8792 6.41038 37.9736 6.76404 38.2476 6.92386Z" fill="#232323"/>
<path d="M21.1114 5.46082C21.2092 5.46082 21.3079 5.43617 21.3981 5.38346L28.5004 1.24757L30.4109 2.35954C30.6849 2.51937 31.0365 2.42415 31.195 2.14786C31.3535 1.87071 31.2591 1.51706 30.9851 1.35724L28.7879 0.0777871C28.61 -0.025929 28.3917 -0.025929 28.2138 0.0777871L20.8248 4.3803C20.5499 4.54013 20.4563 4.89463 20.6148 5.17093C20.7211 5.35626 20.9141 5.45997 21.1123 5.45997L21.1114 5.46082Z" fill="#232323"/>
<path d="M11.0751 19.9063C11.3921 19.9063 11.6492 19.647 11.6492 19.3273V11.0581L13.5589 9.94614C13.8337 9.78632 13.9273 9.43266 13.7688 9.15552C13.6103 8.87838 13.2587 8.78401 12.9847 8.94384L10.7876 10.2233C10.6097 10.327 10.5009 10.5174 10.5009 10.7249V19.3282C10.5009 19.6478 10.7589 19.9071 11.0759 19.9071L11.0751 19.9063Z" fill="#232323"/>
<path d="M18.7516 34.8116L11.6484 30.6774V28.4535C11.6484 28.1338 11.3912 27.8745 11.0742 27.8745C10.7572 27.8745 10.5001 28.1338 10.5001 28.4535V31.0115C10.5001 31.2181 10.6097 31.4094 10.7876 31.5131L18.1774 35.8139C18.2676 35.8666 18.3663 35.8913 18.4641 35.8913C18.6622 35.8913 18.8553 35.7875 18.9615 35.6014C19.12 35.3242 19.0256 34.9706 18.7516 34.8107V34.8116Z" fill="#232323"/>
<path d="M0 49.1643H2.3L2.46272 50.7031C3.07313 49.5333 4.39597 48.8566 5.92199 48.8566C8.75062 48.8566 10.6232 50.9292 10.6232 54.1095C10.6232 57.2899 8.91418 59.5682 5.92199 59.5682C4.4162 59.5682 3.1136 58.9731 2.48295 57.947V64H0V49.1643ZM5.33182 57.3111C7.08211 57.3111 8.11997 56.0385 8.11997 54.2328C8.11997 52.4271 7.08211 51.1341 5.33182 51.1341C3.58152 51.1341 2.50319 52.4059 2.50319 54.2328C2.50319 56.0597 3.62284 57.3111 5.33182 57.3111Z" fill="#232323"/>
<path d="M16.9718 48.8771C20.0854 48.8771 22.3441 51.0526 22.3441 54.2125C22.3441 57.3724 20.0854 59.5479 16.9718 59.5479C13.8582 59.5479 11.5995 57.3724 11.5995 54.2125C11.5995 51.0526 13.8582 48.8771 16.9718 48.8771ZM16.9718 57.3112C18.6816 57.3112 19.8619 56.0598 19.8619 54.2125C19.8619 52.3652 18.6816 51.1138 16.9718 51.1138C15.2619 51.1138 14.0824 52.3652 14.0824 54.2125C14.0824 56.0598 15.2628 57.3112 16.9718 57.3112Z" fill="#232323"/>
<path d="M29.8123 51.4418H28.8967C27.1059 51.4418 25.9863 52.4059 25.9863 54.3765V59.3013H23.5033V49.1847H25.8438L25.9863 50.6623C26.4137 49.6566 27.3698 48.9799 28.7129 48.9799C29.0585 48.9799 29.4051 49.0207 29.8114 49.1235V51.4427L29.8123 51.4418Z" fill="#232323"/>
<path d="M32.8441 59.3013V51.2574H30.9109V49.1643H32.8441V46.0044H35.3271V49.1643H37.2806V51.2574H35.3271V59.3013H32.8441Z" fill="#232323"/>
<path d="M47.7199 49.1644V59.3014H45.4199L45.237 57.9471C44.6266 58.9112 43.324 59.5683 41.9809 59.5683C39.6607 59.5683 38.2974 57.9879 38.2974 55.5056V49.1653H40.7803V54.624C40.7803 56.5529 41.5332 57.3325 42.9176 57.3325C44.4849 57.3325 45.2378 56.4093 45.2378 54.4803V49.1653H47.7208L47.7199 49.1644Z" fill="#232323"/>
<path d="M51.0569 56.223C51.0772 57.1054 51.7289 57.6597 52.8679 57.6597C54.007 57.6597 54.6587 57.1879 54.6587 56.4491C54.6587 55.9365 54.394 55.5667 53.4986 55.3618L51.6876 54.9308C49.8766 54.5201 49.0014 53.6581 49.0014 52.0378C49.0014 50.0476 50.67 48.8574 52.9902 48.8574C55.3104 48.8574 56.7757 50.1709 56.796 52.1406H54.4353C54.415 51.2786 53.8451 50.7243 52.889 50.7243C51.9329 50.7243 51.3428 51.1757 51.3428 51.9349C51.3428 52.5096 51.7904 52.8785 52.6454 53.0843L54.4564 53.5153C56.1451 53.9055 57 54.6851 57 56.2442C57 58.2964 55.2699 59.5682 52.7878 59.5682C50.3057 59.5682 48.6971 58.214 48.6971 56.2238H51.0578L51.0569 56.223Z" fill="#232323"/>
<path d="M47.4004 16.3383L35.7242 9.54147V3.06686C35.7242 2.6673 35.5125 2.29749 35.1694 2.09771C34.8263 1.89793 34.403 1.89793 34.0599 2.09771L22.3837 8.89452L16.8234 5.65721C16.4802 5.45743 16.057 5.45743 15.7138 5.65721C15.3707 5.85699 15.1591 6.2268 15.1591 6.62636V20.2208L9.59877 23.4581C9.25563 23.6579 9.04401 24.0277 9.04401 24.4273C9.04401 24.8268 9.25563 25.1966 9.59877 25.3964L21.275 32.1932V38.667C21.275 39.0665 21.4866 39.4364 21.8297 39.6361C22.0017 39.7365 22.1931 39.7858 22.3845 39.7858C22.5759 39.7858 22.7681 39.7356 22.9393 39.6361L34.6155 32.8393L40.1758 36.0766C40.3478 36.1769 40.5392 36.2263 40.7305 36.2263C40.9219 36.2263 41.1142 36.1761 41.2853 36.0766C41.6285 35.8769 41.8401 35.507 41.8401 35.1075V21.513L47.4004 18.2757C47.7435 18.0759 47.9551 17.7061 47.9551 17.3066C47.9551 16.907 47.7435 16.5372 47.4004 16.3374V16.3383ZM33.5051 5.00516V9.54487L23.5168 15.4184L23.4966 10.832L33.5051 5.00516ZM33.4461 17.9586L33.4714 23.7327L28.5249 26.6419L23.5531 23.7769L23.5278 18.0028L28.4743 15.0937L33.4461 17.9586ZM17.379 8.56552L21.2775 10.8354L21.3281 22.4949L17.379 20.2191V8.56552ZM16.272 22.1583L26.3109 27.9434L22.3811 30.2541L12.3726 24.4273L16.2711 22.1574L16.272 22.1583ZM23.494 36.7304V32.1907L33.4823 26.3171L33.5026 30.9036L23.494 36.7304ZM39.621 33.17L35.7225 30.9002L35.6719 19.2406L39.621 21.5164V33.1692V33.17ZM40.728 19.5773L30.6891 13.7921L34.6189 11.4815L44.6274 17.3083L40.7289 19.5781L40.728 19.5773Z" fill="#FF8552"/>
</svg>
